<svg width="841" height="250" viewBox="0 0 841 250" fill="none" xmlns="http://www.w3.org/2000/svg">
<rect y="-6.10352e-05" width="841" height="250" fill="white"/>
<path d="M316.541 182.87C315.659 182.87 314.953 182.623 314.424 182.13C313.924 181.609 313.674 180.927 313.674 180.087V156.609H305.646C303.882 156.609 303 155.841 303 154.304C303 152.768 303.882 152 305.646 152H327.391C329.155 152 330.038 152.768 330.038 154.304C330.038 155.841 329.155 156.609 327.391 156.609H319.364V180.087C319.364 180.927 319.099 181.609 318.57 182.13C318.07 182.623 317.394 182.87 316.541 182.87Z" fill="#FF6C63"/>
<path d="M338.822 160.87C341.821 160.87 344.041 161.609 345.482 163.087C346.952 164.536 347.687 166.754 347.687 169.739V180.348C347.687 181.13 347.452 181.754 346.981 182.217C346.511 182.652 345.864 182.87 345.041 182.87C344.276 182.87 343.644 182.638 343.144 182.174C342.674 181.71 342.438 181.101 342.438 180.348V179.391C341.939 180.522 341.145 181.406 340.057 182.043C338.998 182.681 337.763 183 336.352 183C334.911 183 333.602 182.71 332.426 182.13C331.25 181.551 330.324 180.754 329.647 179.739C328.971 178.725 328.633 177.594 328.633 176.348C328.633 174.783 329.03 173.551 329.824 172.652C330.647 171.754 331.97 171.101 333.793 170.696C335.617 170.29 338.131 170.087 341.336 170.087H342.438V169.087C342.438 167.667 342.13 166.638 341.512 166C340.895 165.333 339.895 165 338.513 165C337.66 165 336.793 165.13 335.911 165.391C335.028 165.623 333.985 165.971 332.779 166.435C332.015 166.812 331.456 167 331.103 167C330.574 167 330.133 166.812 329.78 166.435C329.456 166.058 329.295 165.565 329.295 164.956C329.295 164.464 329.412 164.043 329.647 163.696C329.912 163.319 330.338 162.971 330.927 162.652C331.956 162.101 333.176 161.667 334.587 161.348C336.028 161.029 337.44 160.87 338.822 160.87ZM337.454 179.087C338.925 179.087 340.115 178.609 341.027 177.652C341.968 176.667 342.438 175.406 342.438 173.87V172.956H341.645C339.674 172.956 338.145 173.043 337.057 173.217C335.969 173.391 335.19 173.696 334.72 174.13C334.249 174.565 334.014 175.159 334.014 175.913C334.014 176.841 334.337 177.609 334.984 178.217C335.661 178.797 336.484 179.087 337.454 179.087Z" fill="#FF6C63"/>
<path d="M362.862 183C360.715 183 358.819 182.551 357.172 181.652C355.555 180.754 354.305 179.478 353.423 177.826C352.541 176.174 352.1 174.246 352.1 172.043C352.1 169.841 352.555 167.898 353.467 166.217C354.408 164.507 355.716 163.188 357.392 162.261C359.068 161.333 360.994 160.87 363.17 160.87C364.317 160.87 365.464 161.029 366.611 161.348C367.787 161.667 368.816 162.101 369.698 162.652C370.639 163.261 371.11 164.029 371.11 164.956C371.11 165.594 370.948 166.116 370.624 166.522C370.33 166.898 369.933 167.087 369.434 167.087C369.11 167.087 368.772 167.014 368.419 166.87C368.066 166.725 367.713 166.551 367.361 166.348C366.714 165.971 366.096 165.681 365.508 165.478C364.92 165.246 364.244 165.13 363.479 165.13C361.656 165.13 360.245 165.725 359.245 166.913C358.275 168.072 357.789 169.754 357.789 171.956C357.789 174.13 358.275 175.812 359.245 177C360.245 178.159 361.656 178.739 363.479 178.739C364.214 178.739 364.861 178.638 365.42 178.435C366.008 178.203 366.655 177.898 367.361 177.522C367.802 177.261 368.184 177.072 368.507 176.956C368.831 176.812 369.154 176.739 369.478 176.739C369.948 176.739 370.345 176.942 370.669 177.348C370.992 177.754 371.154 178.261 371.154 178.87C371.154 179.362 371.036 179.797 370.801 180.174C370.595 180.522 370.242 180.841 369.742 181.13C368.831 181.71 367.772 182.174 366.567 182.522C365.361 182.841 364.126 183 362.862 183Z" fill="#FF6C63"/>
<path d="M384.663 183C382.457 183 380.517 182.551 378.841 181.652C377.194 180.754 375.915 179.464 375.003 177.783C374.092 176.101 373.636 174.145 373.636 171.913C373.636 169.681 374.092 167.739 375.003 166.087C375.915 164.406 377.194 163.116 378.841 162.217C380.517 161.319 382.457 160.87 384.663 160.87C386.868 160.87 388.794 161.319 390.441 162.217C392.117 163.116 393.396 164.406 394.278 166.087C395.19 167.739 395.645 169.681 395.645 171.913C395.645 174.145 395.19 176.101 394.278 177.783C393.396 179.464 392.117 180.754 390.441 181.652C388.794 182.551 386.868 183 384.663 183ZM384.619 178.783C386.412 178.783 387.78 178.203 388.721 177.043C389.662 175.884 390.132 174.174 390.132 171.913C390.132 169.681 389.662 167.985 388.721 166.826C387.78 165.638 386.427 165.043 384.663 165.043C382.899 165.043 381.531 165.638 380.561 166.826C379.62 167.985 379.149 169.681 379.149 171.913C379.149 174.174 379.62 175.884 380.561 177.043C381.502 178.203 382.854 178.783 384.619 178.783Z" fill="#FF6C63"/>
<path d="M412.723 160.87C415.311 160.87 417.237 161.594 418.501 163.043C419.766 164.493 420.398 166.681 420.398 169.609V180.304C420.398 181.116 420.148 181.754 419.648 182.217C419.178 182.681 418.516 182.913 417.663 182.913C416.811 182.913 416.134 182.681 415.634 182.217C415.135 181.754 414.885 181.116 414.885 180.304V169.913C414.885 168.261 414.561 167.058 413.914 166.304C413.297 165.551 412.312 165.174 410.959 165.174C409.371 165.174 408.092 165.667 407.122 166.652C406.181 167.638 405.71 168.956 405.71 170.609V180.304C405.71 181.116 405.46 181.754 404.961 182.217C404.461 182.681 403.784 182.913 402.932 182.913C402.079 182.913 401.403 182.681 400.903 182.217C400.432 181.754 400.197 181.116 400.197 180.304V163.478C400.197 162.725 400.447 162.116 400.947 161.652C401.447 161.188 402.123 160.956 402.976 160.956C403.74 160.956 404.358 161.188 404.828 161.652C405.328 162.087 405.578 162.667 405.578 163.391V164.565C406.313 163.377 407.298 162.464 408.533 161.826C409.768 161.188 411.165 160.87 412.723 160.87Z" fill="#FF6C63"/>
<path d="M435.834 183C433.628 183 431.688 182.551 430.012 181.652C428.365 180.754 427.086 179.464 426.174 177.783C425.263 176.101 424.807 174.145 424.807 171.913C424.807 169.681 425.263 167.739 426.174 166.087C427.086 164.406 428.365 163.116 430.012 162.217C431.688 161.319 433.628 160.87 435.834 160.87C438.039 160.87 439.965 161.319 441.612 162.217C443.288 163.116 444.567 164.406 445.449 166.087C446.361 167.739 446.816 169.681 446.816 171.913C446.816 174.145 446.361 176.101 445.449 177.783C444.567 179.464 443.288 180.754 441.612 181.652C439.965 182.551 438.039 183 435.834 183ZM435.79 178.783C437.583 178.783 438.951 178.203 439.892 177.043C440.832 175.884 441.303 174.174 441.303 171.913C441.303 169.681 440.832 167.985 439.892 166.826C438.951 165.638 437.598 165.043 435.834 165.043C434.069 165.043 432.702 165.638 431.732 166.826C430.791 167.985 430.32 169.681 430.32 171.913C430.32 174.174 430.791 175.884 431.732 177.043C432.673 178.203 434.025 178.783 435.79 178.783Z" fill="#FF6C63"/>
<path d="M476.994 160.87C479.346 160.87 481.14 161.565 482.375 162.956C483.639 164.319 484.272 166.536 484.272 169.609V180.304C484.272 181.145 484.007 181.797 483.478 182.261C482.978 182.696 482.316 182.913 481.493 182.913C480.699 182.913 480.037 182.696 479.508 182.261C479.008 181.797 478.758 181.145 478.758 180.304V169.609C478.758 168.014 478.464 166.884 477.876 166.217C477.317 165.522 476.45 165.174 475.274 165.174C473.833 165.174 472.686 165.667 471.833 166.652C470.981 167.609 470.554 168.927 470.554 170.609V180.304C470.554 181.145 470.29 181.797 469.76 182.261C469.261 182.696 468.614 182.913 467.82 182.913C467.026 182.913 466.364 182.696 465.835 182.261C465.306 181.797 465.041 181.145 465.041 180.304V169.609C465.041 168.014 464.747 166.884 464.159 166.217C463.6 165.522 462.733 165.174 461.557 165.174C460.116 165.174 458.969 165.667 458.116 166.652C457.293 167.609 456.881 168.927 456.881 170.609V180.304C456.881 181.145 456.617 181.797 456.087 182.261C455.558 182.696 454.896 182.913 454.103 182.913C453.309 182.913 452.647 182.696 452.118 182.261C451.618 181.797 451.368 181.145 451.368 180.304V163.478C451.368 162.667 451.633 162.043 452.162 161.609C452.691 161.174 453.353 160.956 454.147 160.956C454.911 160.956 455.529 161.174 455.999 161.609C456.499 162.014 456.749 162.609 456.749 163.391V164.435C457.425 163.275 458.322 162.391 459.439 161.783C460.586 161.174 461.895 160.87 463.365 160.87C466.599 160.87 468.761 162.203 469.849 164.87C470.496 163.652 471.451 162.681 472.716 161.956C473.98 161.232 475.406 160.87 476.994 160.87Z" fill="#FF6C63"/>
<path d="M510.539 183C508.392 183 506.496 182.551 504.849 181.652C503.232 180.754 501.982 179.478 501.1 177.826C500.218 176.174 499.777 174.246 499.777 172.043C499.777 169.841 500.232 167.898 501.144 166.217C502.085 164.507 503.393 163.188 505.069 162.261C506.745 161.333 508.671 160.87 510.847 160.87C511.994 160.87 513.141 161.029 514.288 161.348C515.464 161.667 516.493 162.101 517.375 162.652C518.316 163.261 518.787 164.029 518.787 164.956C518.787 165.594 518.625 166.116 518.301 166.522C518.007 166.898 517.61 167.087 517.111 167.087C516.787 167.087 516.449 167.014 516.096 166.87C515.743 166.725 515.39 166.551 515.038 166.348C514.391 165.971 513.773 165.681 513.185 165.478C512.597 165.246 511.921 165.13 511.156 165.13C509.333 165.13 507.922 165.725 506.922 166.913C505.952 168.072 505.466 169.754 505.466 171.956C505.466 174.13 505.952 175.812 506.922 177C507.922 178.159 509.333 178.739 511.156 178.739C511.891 178.739 512.538 178.638 513.097 178.435C513.685 178.203 514.332 177.898 515.038 177.522C515.479 177.261 515.861 177.072 516.184 176.956C516.508 176.812 516.831 176.739 517.155 176.739C517.625 176.739 518.022 176.942 518.346 177.348C518.669 177.754 518.831 178.261 518.831 178.87C518.831 179.362 518.713 179.797 518.478 180.174C518.272 180.522 517.919 180.841 517.419 181.13C516.508 181.71 515.449 182.174 514.244 182.522C513.038 182.841 511.803 183 510.539 183Z" fill="#FF6C63"/>
<path d="M529.87 183C526.665 183 524.077 182.377 522.107 181.13C521.166 180.58 520.696 179.797 520.696 178.783C520.696 178.203 520.857 177.739 521.181 177.391C521.504 177.014 521.901 176.826 522.372 176.826C522.872 176.826 523.563 177.058 524.445 177.522C525.386 177.956 526.238 178.29 527.003 178.522C527.797 178.754 528.797 178.87 530.002 178.87C531.237 178.87 532.193 178.667 532.869 178.261C533.575 177.855 533.928 177.29 533.928 176.565C533.928 176.072 533.781 175.681 533.487 175.391C533.222 175.101 532.722 174.841 531.987 174.609C531.281 174.348 530.193 174.058 528.723 173.739C526.106 173.217 524.224 172.478 523.077 171.522C521.96 170.565 521.401 169.246 521.401 167.565C521.401 166.29 521.784 165.145 522.548 164.13C523.313 163.087 524.357 162.29 525.68 161.739C527.032 161.159 528.561 160.87 530.267 160.87C531.502 160.87 532.693 161.029 533.839 161.348C534.986 161.638 536.015 162.072 536.927 162.652C537.868 163.232 538.338 164 538.338 164.956C538.338 165.536 538.177 166.029 537.853 166.435C537.53 166.812 537.133 167 536.662 167C536.339 167 536.015 166.942 535.692 166.826C535.398 166.681 535.016 166.478 534.545 166.217C533.692 165.783 532.957 165.464 532.34 165.261C531.722 165.029 530.958 164.913 530.046 164.913C528.958 164.913 528.091 165.13 527.444 165.565C526.826 166 526.518 166.594 526.518 167.348C526.518 168.072 526.841 168.623 527.488 169C528.135 169.377 529.385 169.754 531.237 170.13C533.207 170.536 534.751 171 535.868 171.522C536.986 172.043 537.78 172.696 538.25 173.478C538.75 174.261 539 175.261 539 176.478C539 178.449 538.162 180.029 536.486 181.217C534.839 182.406 532.634 183 529.87 183Z" fill="#FF6C63"/>
<path d="M488.249 162.765C488.249 162.187 488.688 161.718 489.229 161.718H496.09C496.631 161.718 497.07 162.187 497.07 162.765V181.605C497.07 182.183 496.631 182.652 496.09 182.652H489.229C488.688 182.652 488.249 182.183 488.249 181.605V162.765Z" fill="#FF6C63"/>
<path d="M491.749 154.671C491.765 154.512 491.891 154.391 492.041 154.391H493.278C493.428 154.391 493.554 154.512 493.57 154.671L494.094 159.8C494.113 159.986 493.977 160.148 493.802 160.148H491.517C491.342 160.148 491.206 159.986 491.225 159.8L491.749 154.671Z" fill="#FF6C63"/>
<path d="M489.229 159.939C489.229 159.765 489.361 159.625 489.523 159.625H495.796C495.958 159.625 496.09 159.765 496.09 159.939V161.404C496.09 161.578 495.958 161.718 495.796 161.718H489.523C489.361 161.718 489.229 161.578 489.229 161.404V159.939Z" fill="#FF6C63"/>
<path d="M489.229 159.939C489.229 159.765 489.361 159.625 489.523 159.625H495.796C495.958 159.625 496.09 159.765 496.09 159.939V161.404C496.09 161.578 495.958 161.718 495.796 161.718H489.523C489.361 161.718 489.229 161.578 489.229 161.404V159.939Z" fill="#FF6C63"/>
<path d="M391.754 73.458C396.487 71.5483 401.563 73.0697 403.091 76.8562C404.619 80.6427 402.02 85.2605 397.287 87.1702C392.554 89.0799 387.478 87.5585 385.95 83.772C384.422 79.9855 387.021 75.3678 391.754 73.458Z" fill="#9BCF68"/>
<path d="M422.425 66.9999C417.321 67.0001 413.184 70.3102 413.184 74.3933C413.184 78.4764 417.321 81.7864 422.425 81.7862C427.529 81.7861 431.667 78.476 431.667 74.3929C431.667 70.3098 427.529 66.9998 422.425 66.9999Z" fill="#9BCF68"/>
<path d="M451.287 73.458C446.554 71.5483 441.478 73.0697 439.95 76.8562C438.422 80.6427 441.021 85.2605 445.754 87.1702C450.487 89.0799 455.563 87.5585 457.091 83.772C458.619 79.9855 456.02 75.3678 451.287 73.458Z" fill="#9BCF68"/>
<path d="M451.287 73.458C446.554 71.5483 441.478 73.0697 439.95 76.8562C438.422 80.6427 441.021 85.2605 445.754 87.1702C450.487 89.0799 455.563 87.5585 457.091 83.772C458.619 79.9855 456.02 75.3678 451.287 73.458Z" fill="#9BCF68"/>
<path d="M474.422 91.0098C471.096 87.1385 465.889 86.1572 462.791 88.818C459.694 91.4788 459.88 96.7742 463.206 100.646C466.533 104.517 471.74 105.498 474.837 102.837C477.934 100.177 477.748 94.8812 474.422 91.0098Z" fill="#9BCF68"/>
<path d="M369.206 91.0098C372.533 87.1385 377.74 86.1572 380.837 88.818C383.934 91.4788 383.748 96.7742 380.422 100.646C377.096 104.517 371.889 105.498 368.791 102.837C365.694 100.177 365.88 94.8812 369.206 91.0098Z" fill="#9BCF68"/>
<path d="M487.732 118.311C486.797 113.294 482.784 109.833 478.77 110.581C474.756 111.33 472.261 116.004 473.197 121.021C474.132 126.039 478.145 129.5 482.159 128.751C486.173 128.003 488.668 123.329 487.732 118.311Z" fill="#9BCF68"/>
<path d="M355.197 118.311C356.132 113.294 360.145 109.833 364.159 110.581C368.173 111.33 370.668 116.004 369.732 121.021C368.797 126.039 364.784 129.5 360.77 128.751C356.756 128.003 354.261 123.329 355.197 118.311Z" fill="#9BCF68"/>
<path d="M480.184 120C483.497 120 486.184 124.477 486.184 130C486.184 135.523 483.497 140 480.184 140C476.87 140 474.184 135.523 474.184 130C474.184 124.477 476.87 120 480.184 120Z" fill="#E76666"/>
<path d="M469.54 98.7043C466.582 100.198 466.202 105.405 468.691 110.335C471.181 115.265 475.597 118.051 478.554 116.557C481.512 115.064 481.892 109.856 479.403 104.926C476.913 99.9963 472.497 97.2106 469.54 98.7043Z" fill="#E76666"/>
<path d="M450.894 82.6849C448.852 85.2946 450.723 90.1693 455.072 93.5729C459.421 96.9764 464.603 97.62 466.645 95.0104C468.687 92.4007 466.817 87.526 462.467 84.1225C458.118 80.7189 452.937 80.0753 450.894 82.6849Z" fill="#E76666"/>
<path d="M427.491 75.8555C426.769 79.0896 430.553 82.6871 435.943 83.8908C441.333 85.0944 446.288 83.4485 447.01 80.2144C447.733 76.9804 443.949 73.3829 438.559 72.1792C433.168 70.9755 428.213 72.6215 427.491 75.8555Z" fill="#E76666"/>
<path d="M415.01 75.8555C415.733 79.0896 411.949 82.6871 406.559 83.8908C401.168 85.0944 396.213 83.4485 395.491 80.2144C394.769 76.9804 398.553 73.3829 403.943 72.1792C409.333 70.9755 414.288 72.6215 415.01 75.8555Z" fill="#E76666"/>
<path d="M391.645 82.6849C393.687 85.2946 391.817 90.1693 387.467 93.5729C383.118 96.9764 377.936 97.62 375.894 95.0104C373.852 92.4007 375.723 87.526 380.072 84.1225C384.421 80.7189 389.603 80.0753 391.645 82.6849Z" fill="#E76666"/>
<path d="M372.554 98.7043C375.512 100.198 375.892 105.405 373.403 110.335C370.913 115.265 366.497 118.051 363.539 116.557C360.582 115.064 360.202 109.856 362.691 104.926C365.181 99.9963 369.596 97.2106 372.554 98.7043Z" fill="#E76666"/>
<path d="M362.184 120C365.497 120 368.184 124.477 368.184 130C368.184 135.523 365.497 140 362.184 140C358.87 140 356.184 135.523 356.184 130C356.184 124.477 358.87 120 362.184 120Z" fill="#E76666"/>
<path d="M480.894 137.968C479.799 142.577 475.73 146 470.878 146H371.489C366.637 146 362.569 142.577 361.474 137.968C361.282 136.133 361.184 134.271 361.184 132.389C361.184 101.246 388.047 75.9998 421.184 75.9998C454.31 75.9998 481.167 101.23 481.184 132.36C481.184 132.369 481.184 132.379 481.184 132.389C481.184 132.398 481.184 132.408 481.184 132.418C481.183 134.291 481.084 136.142 480.894 137.968Z" fill="#F4CE6C"/>
<path d="M413.184 124.969C414.318 131.018 427.926 131.018 429.06 124.969" stroke="#393939" stroke-width="2.5" stroke-linecap="round"/>
<path d="M444.813 112.67C444.813 115.801 442.274 118.34 439.143 118.34C436.011 118.34 433.473 115.801 433.473 112.67C433.473 109.538 436.011 107 439.143 107C442.274 107 444.813 109.538 444.813 112.67Z" fill="#393939"/>
<path d="M408.524 112.67C408.524 115.801 405.985 118.34 402.854 118.34C399.722 118.34 397.184 115.801 397.184 112.67C397.184 109.538 399.722 107 402.854 107C405.985 107 408.524 109.538 408.524 112.67Z" fill="#393939"/>
<path d="M742.938 21.6068C746.232 25.3999 747.942 29.9764 749.483 34.6354C751.027 39.2944 752.441 43.9946 752.861 50.179C753.318 56.4047 752.818 64.0323 748.776 66.2587C744.775 68.4851 737.229 65.2691 731.934 62.2594C726.602 59.2496 723.517 56.446 718.846 54.4669C714.221 52.4467 708.052 51.1686 703.884 47.2517C699.759 43.2937 697.631 36.6557 699.966 31.9967C702.3 27.3377 709.052 24.699 714.764 21.6892C720.473 18.6382 725.101 15.2161 729.893 15.01C734.645 14.8038 739.603 17.8136 742.938 21.6068Z" fill="#FACB70"/>
<path d="M732.799 200.127C736.231 202.877 738.938 207.639 738.999 213.583C739.056 219.528 736.409 226.656 731.718 228.489C727.022 230.323 720.225 226.892 714.387 223.402C708.554 219.912 703.68 216.364 701.064 210.685C698.413 205.007 697.994 197.199 701.722 194.389C705.424 191.55 713.276 193.709 719.231 195.158C725.217 196.608 729.372 197.347 732.799 200.127Z" fill="#00AEE0"/>
<path d="M794.498 82.8486C807.113 91.6484 810.829 118.5 810.829 118.5C813.054 129.177 817.829 139.29 817.829 167C817.829 196.817 784.193 207.605 766.871 189.547C749.508 171.658 718.479 153.899 724.81 124.41C731.331 94.0428 768.509 64.7197 794.498 82.8486Z" fill="#FF6C63"/>
<path d="M219.591 139.758C243.195 128.932 255.797 159.401 257.62 168.791C246.595 176.861 215.535 167.713 219.591 139.758Z" fill="#8DC613" fill-opacity="0.9"/>
<path d="M221.229 139.893C238.234 120.268 262.319 142.786 267.865 150.579C261.17 162.489 229.11 167.02 221.229 139.893Z" fill="#8DC613" fill-opacity="0.8"/>
<path d="M189.562 96.6706C189.562 96.6706 197.547 87.3545 205.532 88.0199C205.865 89.3508 205.865 89.3508 205.532 90.6817C199.876 90.0163 190.227 97.336 190.227 97.336L189.562 96.6706Z" fill="#8DC613"/>
<path fill-rule="evenodd" clip-rule="evenodd" d="M195.551 118.962C195.551 138.073 176.586 158.223 157.621 158.223C152.439 158.223 148.257 157.293 144.913 155.659C143.148 156.943 140.697 156.975 138.913 155.579C137.008 154.09 136.498 151.472 137.573 149.372C134.237 144.551 133 138.228 133 131.606C133 117.632 147.972 93.3434 171.262 93.3434C174.431 93.3434 177.329 93.9852 179.932 95.0975C182.604 92.76 186.882 93.1333 189.62 95.9923C191.993 98.4704 192.451 102.023 190.935 104.599C193.945 109.188 195.551 114.462 195.551 118.962Z" fill="#FFE244"/>
<circle cx="165.606" cy="103.99" r="1.33086" fill="#FFF8DB"/>
<circle cx="170.929" cy="103.99" r="1.33086" fill="#FFF8DB"/>
<circle cx="168.268" cy="99.9977" r="1.33086" fill="#FFF8DB"/>
<circle cx="151.632" cy="154.563" r="1.33086" fill="#FFF8DB"/>
<path d="M192.223 89.0181C177.916 98.9996 165.939 80.3675 163.609 74.3786C169.931 67.7243 191.558 70.0534 192.223 89.0181Z" fill="#8DC613"/>
<mask id="path-20-inside-1" fill="white">
<path d="M233.926 141.468C233.926 159.696 218.864 174.472 200.284 174.472C181.704 174.472 166.642 159.696 166.642 141.468C166.642 123.241 181.704 108.465 200.284 108.465C218.864 108.465 233.926 123.241 233.926 141.468Z"/>
</mask>
<path d="M233.926 141.468C233.926 159.696 218.864 174.472 200.284 174.472C181.704 174.472 166.642 159.696 166.642 141.468C166.642 123.241 181.704 108.465 200.284 108.465C218.864 108.465 233.926 123.241 233.926 141.468Z" fill="#F0F198"/>
<path d="M230.926 141.468C230.926 157.985 217.262 171.472 200.284 171.472V177.472C220.467 177.472 236.926 161.407 236.926 141.468H230.926ZM200.284 171.472C183.307 171.472 169.642 157.985 169.642 141.468H163.642C163.642 161.407 180.102 177.472 200.284 177.472V171.472ZM169.642 141.468C169.642 124.952 183.307 111.465 200.284 111.465V105.465C180.102 105.465 163.642 121.53 163.642 141.468H169.642ZM200.284 111.465C217.262 111.465 230.926 124.952 230.926 141.468H236.926C236.926 121.53 220.467 105.465 200.284 105.465V111.465Z" fill="#8DC613" mask="url(#path-20-inside-1)"/>
<path d="M208.348 167.389C205.863 168.118 203.229 168.51 200.502 168.51C197.729 168.51 195.052 168.105 192.53 167.352L199.19 146.411C199.57 145.215 201.296 145.215 201.676 146.411L208.348 167.389Z" fill="#BBDD36"/>
<path d="M213.516 165.283L203.012 145.888C202.413 144.781 203.627 143.578 204.761 144.154L224.664 154.259C222.137 158.922 218.247 162.767 213.516 165.283Z" fill="#BBDD36"/>
<path d="M226.707 149.379L205.323 142.834C204.104 142.461 204.104 140.768 205.323 140.395L226.669 133.861C227.437 136.335 227.849 138.961 227.849 141.681C227.849 144.357 227.45 146.941 226.707 149.379Z" fill="#BBDD36"/>
<path d="M224.501 128.807L204.763 139.095C203.635 139.682 202.408 138.492 202.995 137.379L213.251 117.94C218 120.4 221.922 124.191 224.501 128.807Z" fill="#BBDD36"/>
<path d="M208.32 115.965L201.676 136.854C201.296 138.05 199.57 138.05 199.19 136.854L192.558 116.002C195.072 115.255 197.739 114.853 200.502 114.853C203.218 114.853 205.843 115.242 208.32 115.965Z" fill="#BBDD36"/>
<path d="M176.343 129.098C178.858 124.459 182.721 120.631 187.42 118.116L197.865 137.403C198.464 138.509 197.25 139.713 196.116 139.137L176.343 129.098Z" fill="#BBDD36"/>
<path d="M174.288 149.351C173.55 146.921 173.154 144.347 173.154 141.681C173.154 138.971 173.563 136.355 174.325 133.889L195.58 140.395C196.8 140.768 196.8 142.461 195.58 142.834L174.288 149.351Z" fill="#BBDD36"/>
<path d="M187.602 165.344C182.87 162.856 178.971 159.042 176.421 154.408L196.114 144.145C197.242 143.557 198.468 144.747 197.881 145.86L187.602 165.344Z" fill="#BBDD36"/>
<circle cx="214.47" cy="139.254" r="4.84675" fill="#393939"/>
<circle cx="186.441" cy="139.254" r="4.84675" fill="#393939"/>
<path d="M195.051 147.117C195.799 151.104 204.77 151.104 205.518 147.117" stroke="#393939" stroke-width="1.5" stroke-linecap="round"/>
<path d="M238.288 159.905C238.288 169.888 230.154 178.342 220.082 178.342C210.01 178.342 201.813 169.888 201.813 159.905L220.051 159.905C230.123 159.905 238.288 159.905 238.288 159.905Z" fill="#FFF4E2"/>
<path d="M224.405 174.356C223.072 174.747 221.66 174.956 220.198 174.956C218.711 174.956 217.276 174.739 215.924 174.336L219.494 163.108C219.698 162.467 220.624 162.467 220.828 163.108L224.405 174.356Z" fill="#FFE244"/>
<path d="M227.175 173.226L221.544 162.828C221.223 162.235 221.873 161.589 222.481 161.898L233.152 167.316C231.797 169.816 229.712 171.878 227.175 173.226Z" fill="#FFE244"/>
<path d="M234.247 164.7L222.783 161.191C222.129 160.99 222.129 160.105 222.783 159.905L234.86 159.905C234.86 159.905 234.86 160.021 234.86 160.573C234.86 162.007 234.646 163.392 234.247 164.7Z" fill="#FFE244"/>
<path d="M206.143 164.685C205.748 163.382 205.536 162.002 205.536 160.573C205.536 159.12 205.536 159.905 205.536 159.905H217.559C218.213 160.105 218.213 160.99 217.559 161.191L206.143 164.685Z" fill="#FFE244"/>
<path d="M213.282 173.259C210.745 171.925 208.654 169.88 207.287 167.396L217.845 161.893C218.45 161.578 219.108 162.216 218.793 162.813L213.282 173.259Z" fill="#FFE244"/>
<path d="M237.887 159.905C237.887 169.951 229.901 177.941 220.051 177.941C210.2 177.941 202.214 169.951 202.214 159.905" stroke="#FFE244" stroke-width="3"/>
<path d="M632.05 120.64C632.05 135.03 618.607 146.696 602.025 146.696C585.443 146.696 572 135.03 572 120.64C572 106.25 584.296 93.7615 602.025 97.6014C620.04 94.8586 632.05 106.25 632.05 120.64Z" fill="#F65D53"/>
<path d="M675.989 94.1321C675.989 92.6042 677.155 91.3656 678.593 91.3656H696.819C698.257 91.3656 699.423 92.6042 699.423 94.1321V143.929C699.423 145.457 698.257 146.696 696.819 146.696H678.593C677.155 146.696 675.989 145.457 675.989 143.929V94.1321Z" fill="#F68453"/>
<path d="M685.286 72.7399C685.33 72.3189 685.664 71.9999 686.063 71.9999H689.349C689.747 71.9999 690.082 72.3188 690.125 72.7399L691.517 86.2958C691.567 86.7869 691.205 87.2158 690.74 87.2158H684.671C684.206 87.2158 683.844 86.7869 683.895 86.2958L685.286 72.7399Z" fill="#F68453"/>
<path d="M678.593 86.6625C678.593 86.2041 678.942 85.8325 679.374 85.8325H696.038C696.469 85.8325 696.819 86.2041 696.819 86.6625V90.5356C696.819 90.994 696.469 91.3656 696.038 91.3656H679.374C678.942 91.3656 678.593 90.994 678.593 90.5356V86.6625Z" fill="#F68453"/>
<path d="M678.593 86.6625C678.593 86.2041 678.942 85.8325 679.374 85.8325H696.038C696.469 85.8325 696.819 86.2041 696.819 86.6625V90.5356C696.819 90.994 696.469 91.3656 696.038 91.3656H679.374C678.942 91.3656 678.593 90.994 678.593 90.5356V86.6625Z" fill="#F68453"/>
<path d="M691.214 114.73C692.948 116.564 694.444 122.775 689.24 124.726C692.751 120.527 687.745 119.167 687.984 116.268C687.386 116.919 686.25 117.096 686.141 121.296C685.113 120.823 685.113 119.758 685.113 119.167C684.635 119.817 683.199 122.893 685.592 124.726C681.5 123.041 681.414 119.167 682.302 117.451C683.558 115.026 685.95 113.725 686.141 109.348C689.012 110.945 690.496 114.021 690.137 116.268C690.915 116.268 691.214 114.494 691.214 114.73Z" fill="#F3D158"/>
<path d="M686.24 118.005C686.24 132.937 665.913 155.297 640.837 155.297C615.761 155.297 595.434 132.937 595.434 118.005C595.434 118.005 615.761 108.682 640.837 108.682C665.913 108.682 686.24 118.005 686.24 118.005Z" fill="#A8A8A8"/>
<path d="M686.24 118.005C686.24 123.154 665.913 127.865 640.837 127.865C615.761 127.865 595.434 123.154 595.434 118.005C595.434 112.856 615.761 106.053 640.837 106.053C665.913 106.053 686.24 112.856 686.24 118.005Z" fill="#A8A8A8"/>
<path d="M627.72 143.177C620.321 157.162 621.378 157.162 617.15 157.162C608.694 157.162 610.808 148.771 605.523 132.922C605.523 132.922 609.123 134.786 617.15 134.786C625.177 134.786 627.72 143.177 627.72 143.177Z" fill="#A8A8A8"/>
<path d="M653.954 143.177C661.353 157.162 660.296 157.162 664.524 157.162C672.98 157.162 670.866 148.771 676.151 132.922C676.151 132.922 672.551 134.786 664.524 134.786C656.497 134.786 653.954 143.177 653.954 143.177Z" fill="#A8A8A8"/>
<path d="M676.151 117.073C676.151 120.677 661.455 123.599 640.837 123.599C620.219 123.599 605.523 120.677 605.523 117.073C605.523 115.374 610.572 109.405 618.868 108.682C621.96 108.412 627.385 109.878 630.219 109.714C635.91 109.385 636.061 104.954 644.133 104.954C652.204 104.954 652.188 107.883 660.244 108.682C669.355 109.585 676.151 112.411 676.151 117.073Z" fill="#FD554B"/>
<path d="M651.936 145.615C646.387 161.568 649.891 161.568 640.837 161.568C632.513 161.568 635.288 161.568 629.739 145.615C629.739 145.615 633.175 141.057 640.837 141.057C648.499 141.057 651.936 145.615 651.936 145.615Z" fill="#A8A8A8"/>
<path d="M665.065 98.8984C665.655 98.2224 666.639 97.9796 667.468 98.326C668.787 98.8765 670.753 99.7442 672.115 100.554C673.399 101.317 674.976 102.522 676.022 103.355C676.705 103.899 676.885 104.815 676.483 105.591L669.088 119.87C669.088 119.87 661.017 121.734 654.963 121.734C648.909 121.734 645.882 120.802 645.882 120.802L649.201 117.073L665.065 98.8984Z" fill="#A8A8A8"/>
<circle cx="654.732" cy="132.403" r="4.74763" fill="#353E48"/>
<circle cx="627.277" cy="132.403" r="4.74763" fill="#353E48"/>
<path d="M635.711 140.105C636.443 144.011 645.231 144.011 645.963 140.105" stroke="#353E48" stroke-width="2" stroke-linecap="round"/>
<circle cx="620.332" cy="139.373" r="0.732314" fill="#353E48"/>
<circle cx="618.868" cy="142.302" r="0.732314" fill="#353E48"/>
<circle cx="622.53" cy="141.57" r="0.732314" fill="#353E48"/>
<circle cx="662.807" cy="139.373" r="0.732314" fill="#353E48"/>
<circle cx="665.003" cy="141.57" r="0.732314" fill="#353E48"/>
<circle cx="652.554" cy="118.136" r="0.732314" fill="#353E48"/>
<circle cx="668.665" cy="115.206" r="0.732314" fill="#353E48"/>
<circle cx="664.271" cy="101.292" r="0.732314" fill="#353E48"/>
<circle cx="661.342" cy="142.302" r="0.732314" fill="#353E48"/>
<path d="M689.56 156.53C685.308 167.134 655.913 170.089 649.306 165.053C643.671 160.757 660.021 155.762 663.205 154.717C669.627 152.61 673.437 150.805 676.635 148.433C679.833 146.062 683.279 145.326 686.45 148.016C690.503 151.453 690.737 153.597 689.56 156.53Z" fill="#FD554B"/>
<path d="M689.81 153.263C688.358 154.294 687.951 152.248 686.772 150.6C685.594 148.953 684.312 148.262 685.764 147.23C687.216 146.199 688.751 147.031 689.929 148.679C691.108 150.326 691.262 152.231 689.81 153.263Z" fill="#8DC613"/>
<path d="M692.193 145.091C692.009 144.252 691.228 143.698 690.447 143.855C689.667 144.011 689.183 144.819 689.367 145.659L692.193 145.091ZM687.956 147.849C687.21 148.125 686.844 149.005 687.139 149.813C687.433 150.622 688.276 151.053 689.022 150.776L687.956 147.849ZM690.78 145.375C689.367 145.659 689.366 145.658 689.366 145.658C689.366 145.657 689.366 145.656 689.366 145.656C689.366 145.655 689.365 145.654 689.365 145.653C689.365 145.651 689.364 145.649 689.364 145.648C689.363 145.644 689.363 145.642 689.363 145.64C689.362 145.635 689.361 145.634 689.361 145.634C689.362 145.635 689.363 145.644 689.366 145.661C689.371 145.696 689.378 145.759 689.382 145.842C689.39 146.012 689.381 146.242 689.322 146.483C689.221 146.895 688.95 147.48 687.956 147.849L689.022 150.776C690.943 150.064 691.817 148.681 692.133 147.394C692.282 146.786 692.3 146.234 692.281 145.835C692.272 145.634 692.254 145.465 692.236 145.339C692.227 145.276 692.218 145.223 692.21 145.181C692.207 145.161 692.203 145.143 692.2 145.128C692.199 145.12 692.197 145.113 692.196 145.107C692.195 145.104 692.195 145.101 692.194 145.099C692.194 145.098 692.194 145.096 692.193 145.095C692.193 145.094 692.193 145.094 692.193 145.093C692.193 145.092 692.193 145.091 690.78 145.375Z" fill="#8DC613"/>
<path d="M601.796 96.755C599.737 91.9101 590.674 91.0401 587.379 94.3355C592.139 94.3355 597.631 94.7017 600.561 97.6309C596.899 95.8001 591.086 96.3823 588.615 100.855C592.734 98.6184 598.501 98.37 601.796 99.3638C606.536 99.1594 610.859 101.973 612.506 104.954C612.506 102.345 611.683 98.9911 605.092 98.2458C606.739 97.5004 610.897 98.0259 613.742 98.9911C613.742 96.755 607.975 94.1462 602.62 96.755C602.757 95.3885 606.928 90.0039 608.387 89.674C608.799 88.9286 607.383 87.8158 606.327 88.1833C606.327 88.1833 602.554 92.1879 601.796 96.755Z" fill="#8DC613"/>
<path d="M75.4067 35.3821L97.1707 50.818L87.0941 64.4936L70.3584 61.5824L75.4067 35.3821Z" fill="#A75BE2"/>
<path d="M82.3368 52.6461L97.1699 50.8182L87.0933 64.4937L70.3576 61.5826L82.3368 52.6461Z" fill="#9651CC"/>
<path d="M75.4067 35.3823L97.1708 50.8181L87.0942 64.4937L83.7646 56.2003L75.4067 35.3823Z" fill="#8547B7" fill-opacity="0.5"/>
<path d="M93.3456 80.0649L98.3939 53.8646L88.4532 67.8787L71.5816 64.629L93.3456 80.0649Z" fill="#A75BE2"/>
<path d="M93.3452 80.0649L98.3935 53.8647L88.4528 67.8788L93.3452 80.0649Z" fill="#8547B7" fill-opacity="0.5"/>
<path d="M121.744 202.144C121.123 201.789 120.324 201.789 119.614 202.144L114.642 205.073L111.269 206.937L106.386 209.867C105.765 210.222 104.966 210.222 104.256 209.867L100.439 207.559C99.8172 207.204 99.3734 206.493 99.3734 205.695V201.256C99.3734 200.546 99.7285 199.836 100.439 199.392L104.256 197.172C104.877 196.817 105.676 196.817 106.386 197.172L110.204 199.48C110.825 199.836 111.269 200.546 111.269 201.345V204.274L114.642 202.321V199.303C114.642 198.593 114.287 197.883 113.577 197.439L106.475 193.266C105.854 192.911 105.055 192.911 104.345 193.266L97.0653 197.527C96.3551 197.883 96 198.593 96 199.303V207.648C96 208.358 96.3551 209.068 97.0653 209.512L104.256 213.684C104.877 214.039 105.676 214.039 106.386 213.684L111.269 210.843L114.642 208.89L119.525 206.05C120.146 205.695 120.945 205.695 121.655 206.05L125.473 208.269C126.094 208.624 126.538 209.334 126.538 210.133V214.572C126.538 215.282 126.183 215.992 125.473 216.436L121.744 218.655C121.123 219.01 120.324 219.01 119.614 218.655L115.796 216.436C115.175 216.081 114.731 215.371 114.731 214.572V211.731L111.358 213.684V216.614C111.358 217.324 111.713 218.034 112.423 218.478L119.614 222.65C120.235 223.005 121.034 223.005 121.744 222.65L128.935 218.478C129.556 218.123 130 217.413 130 216.614V208.18C130 207.47 129.645 206.76 128.935 206.316L121.744 202.144Z" fill="#8247E5"/>
<circle cx="58" cy="141" r="30" transform="rotate(-16.8254 58 141)" fill="#FF6C63" fill-opacity="0.9"/>
<rect x="36.1025" y="132.759" width="37.0753" height="28.4685" rx="4" transform="rotate(-16.8254 36.1025 132.759)" fill="white"/>
<rect x="38.5776" y="134.085" width="33.1031" height="10.5929" rx="2" transform="rotate(-16.8254 38.5776 134.085)" fill="#40BBD6"/>
<rect x="39.5356" y="137.254" width="33.1031" height="10.5929" rx="2" transform="rotate(-16.8254 39.5356 137.254)" fill="#EDD555"/>
<rect x="40.4937" y="140.422" width="33.1031" height="10.5929" rx="2" transform="rotate(-16.8254 40.4937 140.422)" fill="#9BCF68"/>
<rect x="41.4521" y="143.591" width="33.1031" height="10.5929" rx="2" transform="rotate(-16.8254 41.4521 143.591)" fill="#FF6C63"/>
<path d="M59.0197 144.503C60.7697 143.974 61.7593 142.127 61.2301 140.377C61.0385 139.743 75.8056 135.969 75.8056 135.969L78.2969 144.207C79.1436 147.007 79.7782 149.293 76.9782 150.139L46.8767 159.242C44.0768 160.089 43.6555 157.739 42.8088 154.939L40.3175 146.701C40.3175 146.701 54.7013 141.659 54.8929 142.293C55.4221 144.043 57.2698 145.033 59.0197 144.503Z" fill="white"/>
</svg>
