<svg width="155" height="30" viewBox="0 0 155 30" fill="none" xmlns="http://www.w3.org/2000/svg">
<path d="M12.28 29.2C11.48 29.2 10.84 28.9733 10.36 28.52C9.90667 28.04 9.68 27.4133 9.68 26.64V5.04H2.4C0.8 5.04 0 4.33333 0 2.92C0 1.50667 0.8 0.799998 2.4 0.799998H22.12C23.72 0.799998 24.52 1.50667 24.52 2.92C24.52 4.33333 23.72 5.04 22.12 5.04H14.84V26.64C14.84 27.4133 14.6 28.04 14.12 28.52C13.6667 28.9733 13.0533 29.2 12.28 29.2ZM39.4853 9.04C40.2586 9.04 40.872 9.25333 41.3253 9.68C41.7786 10.1067 42.0053 10.68 42.0053 11.4V26.92C42.0053 27.6133 41.7653 28.1733 41.2853 28.6C40.832 29.0267 40.232 29.24 39.4853 29.24C38.7653 29.24 38.192 29.04 37.7653 28.64C37.3386 28.24 37.1253 27.6933 37.1253 27V26C36.512 27.0667 35.6853 27.8933 34.6453 28.48C33.6053 29.04 32.432 29.32 31.1253 29.32C26.3253 29.32 23.9253 26.6267 23.9253 21.24V11.4C23.9253 10.68 24.152 10.1067 24.6053 9.68C25.0586 9.25333 25.6586 9.04 26.4053 9.04C27.1786 9.04 27.792 9.25333 28.2453 9.68C28.6986 10.1067 28.9253 10.68 28.9253 11.4V21.28C28.9253 22.6667 29.2053 23.6933 29.7653 24.36C30.3253 25.0267 31.2053 25.36 32.4053 25.36C33.792 25.36 34.8986 24.9067 35.7253 24C36.5786 23.0667 37.0053 21.84 37.0053 20.32V11.4C37.0053 10.68 37.232 10.1067 37.6853 9.68C38.1386 9.25333 38.7386 9.04 39.4853 9.04Z" fill="black"/>
<path d="M60.2494 29.36C57.5294 29.36 55.1427 28.7733 53.0894 27.6C51.0627 26.4267 49.5027 24.7467 48.4094 22.56C47.316 20.3733 46.7694 17.8133 46.7694 14.88C46.7694 11.9467 47.316 9.4 48.4094 7.24C49.5027 5.05333 51.0627 3.37333 53.0894 2.2C55.1427 1.02667 57.5294 0.439998 60.2494 0.439998C62.0094 0.439998 63.6627 0.706665 65.2094 1.24C66.756 1.74667 68.1294 2.49333 69.3294 3.48C69.676 3.74667 69.916 4.02667 70.0494 4.32C70.1827 4.61333 70.2494 4.97333 70.2494 5.4C70.2494 5.98667 70.0894 6.48 69.7694 6.88C69.4494 7.28 69.0627 7.48 68.6094 7.48C68.076 7.48 67.5294 7.29333 66.9694 6.92C65.8227 6.06666 64.756 5.48 63.7694 5.16C62.7827 4.81333 61.6894 4.64 60.4894 4.64C57.716 4.64 55.6094 5.50667 54.1694 7.24C52.756 8.97333 52.0494 11.52 52.0494 14.88C52.0494 18.2667 52.756 20.8267 54.1694 22.56C55.6094 24.2933 57.716 25.16 60.4894 25.16C61.636 25.16 62.6894 24.9867 63.6494 24.64C64.636 24.2933 65.7427 23.7067 66.9694 22.88C67.236 22.72 67.5027 22.5867 67.7694 22.48C68.036 22.3733 68.316 22.32 68.6094 22.32C69.0627 22.32 69.4494 22.52 69.7694 22.92C70.0894 23.32 70.2494 23.8133 70.2494 24.4C70.2494 24.8 70.1827 25.16 70.0494 25.48C69.916 25.7733 69.676 26.0533 69.3294 26.32C68.1294 27.3067 66.756 28.0667 65.2094 28.6C63.6627 29.1067 62.0094 29.36 60.2494 29.36ZM82.4081 8.96C85.1281 8.96 87.1415 9.64 88.4481 11C89.7815 12.3333 90.4481 14.3733 90.4481 17.12V26.88C90.4481 27.6 90.2348 28.1733 89.8081 28.6C89.3815 29 88.7948 29.2 88.0481 29.2C87.3548 29.2 86.7815 28.9867 86.3281 28.56C85.9015 28.1333 85.6881 27.5733 85.6881 26.88V26C85.2348 27.04 84.5148 27.8533 83.5281 28.44C82.5681 29.0267 81.4481 29.32 80.1681 29.32C78.8615 29.32 77.6748 29.0533 76.6081 28.52C75.5415 27.9867 74.7015 27.2533 74.0881 26.32C73.4748 25.3867 73.1681 24.3467 73.1681 23.2C73.1681 21.76 73.5281 20.6267 74.2481 19.8C74.9948 18.9733 76.1948 18.3733 77.8481 18C79.5015 17.6267 81.7815 17.44 84.6881 17.44H85.6881V16.52C85.6881 15.2133 85.4081 14.2667 84.8481 13.68C84.2881 13.0667 83.3815 12.76 82.1281 12.76C81.3548 12.76 80.5681 12.88 79.7681 13.12C78.9681 13.3333 78.0215 13.6533 76.9281 14.08C76.2348 14.4267 75.7281 14.6 75.4081 14.6C74.9281 14.6 74.5281 14.4267 74.2081 14.08C73.9148 13.7333 73.7681 13.28 73.7681 12.72C73.7681 12.2667 73.8748 11.88 74.0881 11.56C74.3281 11.2133 74.7148 10.8933 75.2481 10.6C76.1815 10.0933 77.2881 9.69333 78.5681 9.4C79.8748 9.10667 81.1548 8.96 82.4081 8.96ZM81.1681 25.72C82.5015 25.72 83.5815 25.28 84.4081 24.4C85.2615 23.4933 85.6881 22.3333 85.6881 20.92V20.08H84.9681C83.1815 20.08 81.7948 20.16 80.8081 20.32C79.8215 20.48 79.1148 20.76 78.6881 21.16C78.2615 21.56 78.0481 22.1067 78.0481 22.8C78.0481 23.6533 78.3415 24.36 78.9281 24.92C79.5415 25.4533 80.2881 25.72 81.1681 25.72ZM110.97 9.04C111.743 9.04 112.356 9.25333 112.81 9.68C113.263 10.1067 113.49 10.68 113.49 11.4V26.92C113.49 27.6133 113.25 28.1733 112.77 28.6C112.316 29.0267 111.716 29.24 110.97 29.24C110.25 29.24 109.676 29.04 109.25 28.64C108.823 28.24 108.61 27.6933 108.61 27V26C107.996 27.0667 107.17 27.8933 106.13 28.48C105.09 29.04 103.916 29.32 102.61 29.32C97.8097 29.32 95.4097 26.6267 95.4097 21.24V11.4C95.4097 10.68 95.6364 10.1067 96.0897 9.68C96.543 9.25333 97.143 9.04 97.8897 9.04C98.663 9.04 99.2764 9.25333 99.7297 9.68C100.183 10.1067 100.41 10.68 100.41 11.4V21.28C100.41 22.6667 100.69 23.6933 101.25 24.36C101.81 25.0267 102.69 25.36 103.89 25.36C105.276 25.36 106.383 24.9067 107.21 24C108.063 23.0667 108.49 21.84 108.49 20.32V11.4C108.49 10.68 108.716 10.1067 109.17 9.68C109.623 9.25333 110.223 9.04 110.97 9.04ZM125.774 29.32C122.867 29.32 120.52 28.7467 118.734 27.6C117.88 27.0933 117.454 26.3733 117.454 25.44C117.454 24.9067 117.6 24.48 117.894 24.16C118.187 23.8133 118.547 23.64 118.974 23.64C119.427 23.64 120.054 23.8533 120.854 24.28C121.707 24.68 122.48 24.9867 123.174 25.2C123.894 25.4133 124.8 25.52 125.894 25.52C127.014 25.52 127.88 25.3333 128.494 24.96C129.134 24.5867 129.454 24.0667 129.454 23.4C129.454 22.9467 129.32 22.5867 129.054 22.32C128.814 22.0533 128.36 21.8133 127.694 21.6C127.054 21.36 126.067 21.0933 124.734 20.8C122.36 20.32 120.654 19.64 119.614 18.76C118.6 17.88 118.094 16.6667 118.094 15.12C118.094 13.9467 118.44 12.8933 119.134 11.96C119.827 11 120.774 10.2667 121.974 9.76C123.2 9.22666 124.587 8.96 126.134 8.96C127.254 8.96 128.334 9.10667 129.374 9.4C130.414 9.66667 131.347 10.0667 132.174 10.6C133.027 11.1333 133.454 11.84 133.454 12.72C133.454 13.2533 133.307 13.7067 133.014 14.08C132.72 14.4267 132.36 14.6 131.934 14.6C131.64 14.6 131.347 14.5467 131.054 14.44C130.787 14.3067 130.44 14.12 130.014 13.88C129.24 13.48 128.574 13.1867 128.014 13C127.454 12.7867 126.76 12.68 125.934 12.68C124.947 12.68 124.16 12.88 123.574 13.28C123.014 13.68 122.734 14.2267 122.734 14.92C122.734 15.5867 123.027 16.0933 123.614 16.44C124.2 16.7867 125.334 17.1333 127.014 17.48C128.8 17.8533 130.2 18.28 131.214 18.76C132.227 19.24 132.947 19.84 133.374 20.56C133.827 21.28 134.054 22.2 134.054 23.32C134.054 25.1333 133.294 26.5867 131.774 27.68C130.28 28.7733 128.28 29.32 125.774 29.32ZM146.588 8.96C149.308 8.96 151.321 9.64 152.628 11C153.961 12.3333 154.628 14.3733 154.628 17.12V26.88C154.628 27.6 154.414 28.1733 153.988 28.6C153.561 29 152.974 29.2 152.228 29.2C151.534 29.2 150.961 28.9867 150.508 28.56C150.081 28.1333 149.868 27.5733 149.868 26.88V26C149.414 27.04 148.694 27.8533 147.708 28.44C146.748 29.0267 145.628 29.32 144.348 29.32C143.041 29.32 141.854 29.0533 140.788 28.52C139.721 27.9867 138.881 27.2533 138.268 26.32C137.654 25.3867 137.348 24.3467 137.348 23.2C137.348 21.76 137.708 20.6267 138.428 19.8C139.174 18.9733 140.374 18.3733 142.028 18C143.681 17.6267 145.961 17.44 148.868 17.44H149.868V16.52C149.868 15.2133 149.588 14.2667 149.028 13.68C148.468 13.0667 147.561 12.76 146.308 12.76C145.534 12.76 144.748 12.88 143.948 13.12C143.148 13.3333 142.201 13.6533 141.108 14.08C140.414 14.4267 139.908 14.6 139.588 14.6C139.108 14.6 138.708 14.4267 138.388 14.08C138.094 13.7333 137.948 13.28 137.948 12.72C137.948 12.2667 138.054 11.88 138.268 11.56C138.508 11.2133 138.894 10.8933 139.428 10.6C140.361 10.0933 141.468 9.69333 142.748 9.4C144.054 9.10667 145.334 8.96 146.588 8.96ZM145.348 25.72C146.681 25.72 147.761 25.28 148.588 24.4C149.441 23.4933 149.868 22.3333 149.868 20.92V20.08H149.148C147.361 20.08 145.974 20.16 144.988 20.32C144.001 20.48 143.294 20.76 142.868 21.16C142.441 21.56 142.228 22.1067 142.228 22.8C142.228 23.6533 142.521 24.36 143.108 24.92C143.721 25.4533 144.468 25.72 145.348 25.72Z" fill="#0584D9"/>
</svg>
